<svg version="1.0" xmlns="http://www.w3.org/2000/svg" viewBox="18.65 58.75 38 38" xml:space="preserve"><path d="M30.5 91.8c-.3-1.5-.2-3 .4-4.3l-7.7-7.8c-1.1-1.1-1-2.9.1-4s2.9-1.1 4 0l2 2-3 3 2.4 2.4 8.2-8.4-2.4-2.4-3 3-2-1.9c-2.4-2.4-6.3-2.4-8.8 0s-2.4 6.3 0 8.8c.1 0 9.8 9.6 9.8 9.6M51.9 85c-1.5.3-3 .2-4.3-.4l-7.7 7.7c-1.1 1.1-2.9 1.1-4-.1-1.1-1.1-1.1-2.9 0-4l2-2 3 3 2.4-2.4-8.5-8.3-2.4 2.5 3 3-2 1.9c-2.4 2.4-2.4 6.4 0 8.8s6.4 2.4 8.8 0c0 .1 9.7-9.7 9.7-9.7M45 63.8c.3 1.5.2 3-.4 4.3l7.8 7.8c1.1 1.1 1.1 2.9-.1 4-1.1 1.1-2.9 1.1-4 0l-2-2 3-3-2.3-2.4-8.3 8.4 2.4 2.4 3-3 1.9 2c2.5 2.4 6.4 2.3 8.8-.2 2.3-2.4 2.3-6.2 0-8.6-.1 0-9.8-9.8-9.8-9.7m-21.3 6.8c1.5-.3 3-.2 4.4.4l7.7-7.8c1.1-1.1 2.9-1.1 4 .1 1.1 1.1 1.1 2.9 0 4l-2 2-3-3-2.3 2.3 8.4 8.4 2.4-2.4-3-3 2-2c2.4-2.4 2.4-6.4 0-8.8s-6.4-2.4-8.8 0c0 0-9.8 9.7-9.8 9.8" style="fill:#ab0334"/></svg>